<svg width="99" height="96" viewBox="0 0 99 96" fill="none" xmlns="http://www.w3.org/2000/svg">
<rect width="96" height="96" rx="48" fill="#A0AEC0"/>
<path fill-rule="evenodd" clip-rule="evenodd" d="M29.1281 30.5927C29.1281 20.3227 37.5743 12 47.9968 12C58.4192 12 66.8717 20.3227 66.8717 30.5927C66.8717 40.8688 58.4192 49.1915 47.9968 49.1915C37.5743 49.1915 29.1281 40.8688 29.1281 30.5927ZM48.1344 88C60.5952 88 71.872 83.0843 80 75.1761V69.566C80 62.7822 74.272 57.2766 67.2 57.2766H28.8C21.728 57.2766 16 62.7822 16 69.566V74.8934C24.1472 82.9614 35.5328 88 48.1344 88Z" fill="white"/>
<circle cx="82" cy="79" r="14.5" fill="#3F8EBB" stroke="white" stroke-width="5"/>
<path d="M86.7917 78.1667H82.8333V74.2083C82.8333 74.0937 82.7396 74 82.625 74H81.375C81.2604 74 81.1667 74.0937 81.1667 74.2083V78.1667H77.2083C77.0937 78.1667 77 78.2604 77 78.375V79.625C77 79.7396 77.0937 79.8333 77.2083 79.8333H81.1667V83.7917C81.1667 83.9062 81.2604 84 81.375 84H82.625C82.7396 84 82.8333 83.9062 82.8333 83.7917V79.8333H86.7917C86.9062 79.8333 87 79.7396 87 79.625V78.375C87 78.2604 86.9062 78.1667 86.7917 78.1667Z" fill="white"/>
</svg>
